<?xml version="1.0" encoding="utf-8"?>
<!-- Generator: Adobe Illustrator 27.5.0, SVG Export Plug-In . SVG Version: 6.00 Build 0)  -->
<svg version="1.1" id="Layer_1" xmlns="http://www.w3.org/2000/svg" xmlns:xlink="http://www.w3.org/1999/xlink" x="0px" y="0px"
	 viewBox="0 0 2807 1604" style="enable-background:new 0 0 2807 1604;" xml:space="preserve">
<g>
	<g>
		<defs>
			<rect id="SVGID_1_" width="2806.243" height="1603.568"/>
		</defs>
		
			<radialGradient id="SVGID_00000158733285755555721740000016288058238873843347_" cx="1403.1215" cy="801.7838" r="1807.2878" gradientUnits="userSpaceOnUse">
			<stop  offset="0.3923" style="stop-color:#E8F0F2"/>
			<stop  offset="0.4854" style="stop-color:#E3EEF0"/>
			<stop  offset="0.594" style="stop-color:#D5E6E9"/>
			<stop  offset="0.7103" style="stop-color:#BEDADD"/>
			<stop  offset="0.8321" style="stop-color:#9DCACD"/>
			<stop  offset="0.9569" style="stop-color:#73B4B8"/>
			<stop  offset="1" style="stop-color:#63ACB0"/>
		</radialGradient>
		<use xlink:href="#SVGID_1_"  style="overflow:visible;fill:url(#SVGID_00000158733285755555721740000016288058238873843347_);"/>
		<clipPath id="SVGID_00000146492207830625429260000004263651337878090656_">
			<use xlink:href="#SVGID_1_"  style="overflow:visible;"/>
		</clipPath>
		<g style="opacity:0.6;clip-path:url(#SVGID_00000146492207830625429260000004263651337878090656_);">
			<polygon style="opacity:0.938;fill:#FFFFFF;" points="407.64,508.84 216.132,508.84 216.132,317.332 79.948,317.332 
				79.948,508.84 -111.561,508.84 -111.561,645.024 79.948,645.024 79.948,836.533 216.132,836.533 216.132,645.024 407.64,645.024 
							"/>
			<polygon style="opacity:0.7296;fill:#FFFFFF;" points="956.117,1367.752 914.835,1367.752 914.835,1326.47 885.479,1326.47 
				885.479,1367.752 844.197,1367.752 844.197,1397.108 885.479,1397.108 885.479,1438.39 914.835,1438.39 914.835,1397.108 
				956.117,1397.108 			"/>
			<polygon style="opacity:0.4972;fill:#FFFFFF;" points="2633.528,1389.433 2527.003,1389.433 2527.003,1282.908 
				2451.253,1282.908 2451.253,1389.433 2344.728,1389.433 2344.728,1465.184 2451.253,1465.184 2451.253,1571.708 
				2527.003,1571.708 2527.003,1465.184 2633.528,1465.184 			"/>
			<polygon style="opacity:0.4;fill:#FFFFFF;" points="757.52,280.326 640.451,280.326 640.451,163.257 557.202,163.257 
				557.202,280.326 440.132,280.326 440.132,363.575 557.202,363.575 557.202,480.644 640.451,480.644 640.451,363.575 
				757.52,363.575 			"/>
			<polygon style="opacity:0.4897;fill:#FFFFFF;" points="163.959,976.228 94.23,976.228 94.23,906.499 44.645,906.499 
				44.645,976.228 -25.084,976.228 -25.084,1025.813 44.645,1025.813 44.645,1095.542 94.23,1095.542 94.23,1025.813 
				163.959,1025.813 			"/>
			<polygon style="opacity:0.528;fill:#FFFFFF;" points="1203.634,679.107 1089.787,679.107 1089.787,565.259 1008.828,565.259 
				1008.828,679.107 894.98,679.107 894.98,760.065 1008.828,760.065 1008.828,873.913 1089.787,873.913 1089.787,760.065 
				1203.634,760.065 			"/>
			<polygon style="opacity:0.7495;fill:#FFFFFF;" points="2321.313,111.402 2280.78,111.402 2280.78,70.869 2251.956,70.869 
				2251.956,111.402 2211.424,111.402 2211.424,140.225 2251.956,140.225 2251.956,180.758 2280.78,180.758 2280.78,140.225 
				2321.313,140.225 			"/>
			<polygon style="opacity:0.3892;fill:#FFFFFF;" points="1045.446,155.903 1018.499,155.903 1018.499,128.956 999.337,128.956 
				999.337,155.903 972.39,155.903 972.39,175.065 999.337,175.065 999.337,202.012 1018.499,202.012 1018.499,175.065 
				1045.446,175.065 			"/>
			<polygon style="opacity:0.0837;fill:#FFFFFF;" points="1876.423,695.477 1679.772,695.477 1679.772,498.826 1539.932,498.826 
				1539.932,695.477 1343.282,695.477 1343.282,835.317 1539.932,835.317 1539.932,1031.968 1679.772,1031.968 1679.772,835.317 
				1876.423,835.317 			"/>
			<polygon style="opacity:0.7202;fill:#FFFFFF;" points="731.093,961.629 620.891,961.629 620.891,851.426 542.525,851.426 
				542.525,961.629 432.323,961.629 432.323,1039.995 542.525,1039.995 542.525,1150.197 620.891,1150.197 620.891,1039.995 
				731.093,1039.995 			"/>
			<polygon style="opacity:0.3912;fill:#FFFFFF;" points="1873.454,1375.923 1849.689,1375.923 1849.689,1352.158 1832.79,1352.158 
				1832.79,1375.923 1809.025,1375.923 1809.025,1392.823 1832.79,1392.823 1832.79,1416.587 1849.689,1416.587 1849.689,1392.823 
				1873.454,1392.823 			"/>
			<polygon style="opacity:0.8813;fill:#FFFFFF;" points="1436.936,1238.261 1388.325,1238.261 1388.325,1189.649 
				1353.757,1189.649 1353.757,1238.261 1305.146,1238.261 1305.146,1272.828 1353.757,1272.828 1353.757,1321.439 
				1388.325,1321.439 1388.325,1272.828 1436.936,1272.828 			"/>
			<polygon style="opacity:0.5027;fill:#FFFFFF;" points="173.622,125.623 138.739,125.623 138.739,90.739 113.933,90.739 
				113.933,125.623 79.05,125.623 79.05,150.428 113.933,150.428 113.933,185.312 138.739,185.312 138.739,150.428 173.622,150.428 
							"/>
			<polygon style="opacity:0.7594;fill:#FFFFFF;" points="1511.841,189.499 1485.609,189.499 1485.609,163.267 1466.956,163.267 
				1466.956,189.499 1440.724,189.499 1440.724,208.152 1466.956,208.152 1466.956,234.384 1485.609,234.384 1485.609,208.152 
				1511.841,208.152 			"/>
			<polygon style="opacity:0.4391;fill:#FFFFFF;" points="2237.851,953.403 2153.092,953.403 2153.092,868.643 2092.819,868.643 
				2092.819,953.403 2008.059,953.403 2008.059,1013.676 2092.819,1013.676 2092.819,1098.435 2153.092,1098.435 2153.092,1013.676 
				2237.851,1013.676 			"/>
			<polygon style="opacity:0.9433;fill:#FFFFFF;" points="353.966,1341.498 281.771,1341.498 281.771,1269.303 230.431,1269.303 
				230.431,1341.498 158.236,1341.498 158.236,1392.838 230.431,1392.838 230.431,1465.033 281.771,1465.033 281.771,1392.838 
				353.966,1392.838 			"/>
			<polygon style="opacity:0.3581;fill:#FFFFFF;" points="2813.14,257.747 2757.402,257.747 2757.402,202.009 2717.766,202.009 
				2717.766,257.747 2662.027,257.747 2662.027,297.384 2717.766,297.384 2717.766,353.122 2757.402,353.122 2757.402,297.384 
				2813.14,297.384 			"/>
			<polygon style="opacity:0.7982;fill:#FFFFFF;" points="2606.486,564.942 2459.428,564.942 2459.428,417.884 2354.853,417.884 
				2354.853,564.942 2207.795,564.942 2207.795,669.517 2354.853,669.517 2354.853,816.576 2459.428,816.576 2459.428,669.517 
				2606.486,669.517 			"/>
			<polygon style="opacity:0.2707;fill:#FFFFFF;" points="2791.725,1022.436 2744.556,1022.436 2744.556,975.268 2711.014,975.268 
				2711.014,1022.436 2663.846,1022.436 2663.846,1055.978 2711.014,1055.978 2711.014,1103.146 2744.556,1103.146 
				2744.556,1055.978 2791.725,1055.978 			"/>
			<polygon style="opacity:0.7782;fill:#FFFFFF;" points="1934.799,330.66 1908.293,330.66 1908.293,304.153 1889.443,304.153 
				1889.443,330.66 1862.937,330.66 1862.937,349.509 1889.443,349.509 1889.443,376.016 1908.293,376.016 1908.293,349.509 
				1934.799,349.509 			"/>
		</g>
	</g>
	
		<radialGradient id="SVGID_00000149357492586592862910000009717892223272720570_" cx="1355.9658" cy="708.3841" r="842.5557" gradientUnits="userSpaceOnUse">
		<stop  offset="0.1398" style="stop-color:#6BC1DB"/>
		<stop  offset="0.2473" style="stop-color:#8ACEE3"/>
		<stop  offset="0.4137" style="stop-color:#B4DFED"/>
		<stop  offset="0.5762" style="stop-color:#D5EDF5"/>
		<stop  offset="0.7313" style="stop-color:#ECF7FA"/>
		<stop  offset="0.876" style="stop-color:#FAFDFE"/>
		<stop  offset="1" style="stop-color:#FFFFFF"/>
	</radialGradient>
	<path style="fill:url(#SVGID_00000149357492586592862910000009717892223272720570_);" d="M2209.24,1035.781h-149.331
		c-1.511,0-2.777,1.141-2.935,2.642l-19.952,189.66l-25.515-443.439c-0.089-1.54-1.35-2.75-2.891-2.781
		c-1.681,0.036-2.846,1.139-2.992,2.67l-30.941,323.977l-14.976-70.393c-0.291-1.362-1.494-2.337-2.887-2.337h-37.064l-8.164-65.427
		c-0.175-1.407-1.325-2.49-2.742-2.578c-1.384-0.108-2.693,0.838-3.046,2.214l-16.811,65.791h-36.74l-36.587-164.122
		c-0.307-1.395-1.599-2.315-2.999-2.308c-1.427,0.06-2.609,1.131-2.803,2.546l-37.706,272.775l-15.937-106.375
		c-0.215-1.447-1.457-2.515-2.917-2.515h-273.592c-1.51,0-2.776,1.141-2.933,2.642l-19.953,189.657l-25.514-443.436
		c-0.089-1.54-1.349-2.75-2.891-2.781c-1.774,0.036-2.845,1.139-2.992,2.67l-30.942,323.977l-14.975-70.393
		c-0.291-1.362-1.495-2.337-2.887-2.337h-37.063l-8.165-65.427c-0.176-1.407-1.326-2.49-2.743-2.578
		c-1.419-0.106-2.694,0.84-3.043,2.214l-16.815,65.791h-36.736l-36.59-164.122c-0.306-1.395-1.582-2.315-2.999-2.308
		c-1.427,0.06-2.609,1.131-2.803,2.546l-37.703,272.772l-15.937-106.373c-0.216-1.447-1.458-2.515-2.918-2.515h-273.59
		c-1.511,0-2.777,1.141-2.936,2.642l-19.951,189.66l-25.514-443.439c-0.089-1.54-1.35-2.75-2.891-2.781
		c-1.65,0.036-2.846,1.139-2.992,2.67l-30.942,323.98l-14.978-70.396c-0.29-1.362-1.493-2.337-2.887-2.337h-37.063l-8.163-65.427
		c-0.175-1.407-1.325-2.49-2.742-2.578c-1.395-0.108-2.693,0.838-3.045,2.214l-16.813,65.791h-36.737l-36.59-164.122
		c-0.31-1.395-1.566-2.315-3-2.308c-1.425,0.06-2.607,1.131-2.802,2.546l-37.702,272.772l-15.937-106.373
		c-0.216-1.447-1.458-2.515-2.918-2.515H440.348v5.902h150.033l18.595,124.126c0.216,1.445,1.458,2.513,2.918,2.513h0.016
		c1.468-0.008,2.707-1.092,2.906-2.547l38.266-276.854l33.543,150.453c0.299,1.35,1.495,2.309,2.878,2.309h41.393
		c1.348,0,2.525-0.914,2.861-2.221l13.522-52.915l6.557,52.55c0.182,1.477,1.438,2.586,2.927,2.586h37.279l18.481,86.847
		c0.302,1.427,1.607,2.395,3.055,2.332c1.454-0.085,2.631-1.216,2.768-2.667l29.099-304.697l25.382,441.153
		c0.089,1.532,1.341,2.742,2.877,2.778c0.024,0.002,0.049,0.002,0.071,0.002c1.505,0,2.776-1.138,2.934-2.644l23.47-223.104h268.394
		l18.596,124.126c0.215,1.45,1.58,2.339,2.934,2.513c1.467-0.008,2.707-1.092,2.906-2.547l38.268-276.854l33.542,150.453
		c0.3,1.35,1.497,2.309,2.879,2.309h41.393c1.347,0,2.525-0.914,2.86-2.221l13.523-52.917l6.559,52.552
		c0.182,1.477,1.438,2.586,2.927,2.586h37.279l18.478,86.847c0.304,1.427,1.681,2.395,3.055,2.332
		c1.456-0.085,2.63-1.216,2.769-2.667l29.099-304.695l25.382,441.15c0.09,1.532,1.34,2.742,2.878,2.778
		c0.024,0.002,0.048,0.002,0.07,0.002c1.506,0,2.776-1.138,2.935-2.644l23.47-223.104h268.394l18.595,124.126
		c0.216,1.45,1.498,2.339,2.935,2.513c1.467-0.008,2.707-1.092,2.905-2.547l38.27-276.854l33.54,150.453
		c0.301,1.35,1.497,2.309,2.88,2.309h41.395c1.349,0,2.525-0.914,2.86-2.221l13.521-52.915l6.558,52.55
		c0.183,1.477,1.439,2.586,2.927,2.586h37.28l18.476,86.847c0.302,1.427,1.635,2.395,3.056,2.332
		c1.455-0.085,2.631-1.216,2.768-2.667l29.099-304.695l25.382,441.15c0.089,1.532,1.34,2.742,2.876,2.778
		c1.691,0.192,2.844-1.112,3.004-2.642l23.47-223.104h146.676c1.63,0,2.951-1.32,2.951-2.951
		C2212.191,1037.102,2210.87,1035.781,2209.24,1035.781z"/>
	<g>
		<g>
			<path style="fill:#61B2C2;" d="M1223.8,1360.056l-10.685,19.078h-10.682l-10.685-19.078v29.759h-13.735V1336.4h14.499
				l15.261,28.234l15.263-28.234h14.499v53.414H1223.8V1360.056z"/>
			<path style="fill:#61B2C2;" d="M1304.304,1389.815h-42.353V1336.4h42.353v10.682h-28.618v10.301h22.511v10.685h-22.511v11.065
				h28.618V1389.815z"/>
			<path style="fill:#61B2C2;" d="M1355.43,1336.4c5.75,0,10.111,1.487,13.088,4.464c2.977,2.974,4.464,7.338,4.464,13.085v18.314
				c0,5.75-1.487,10.111-4.464,13.088c-2.977,2.977-7.338,4.464-13.088,4.464h-29.759V1336.4H1355.43z M1359.247,1353.949
				c0-4.578-2.289-6.868-6.868-6.868h-12.973v32.051h12.973c4.578,0,6.868-2.292,6.868-6.87V1353.949z"/>
			<path style="fill:#61B2C2;" d="M1421.054,1389.815h-27.47v-10.682h6.867v-32.051h-6.867V1336.4h27.47v10.682h-6.868v32.051h6.868
				V1389.815z"/>
			<path style="fill:#61B2C2;" d="M1484.39,1389.051c-11.345,1.017-20.757,1.528-28.234,1.528c-4.986,0-8.651-1.172-10.989-3.51
				c-2.341-2.341-3.51-6.003-3.51-10.989v-24.419c0-5.343,1.207-9.219,3.624-11.636c2.414-2.417,6.297-3.624,11.636-3.624h27.472
				v10.682h-24.419c-3.053,0-4.578,1.525-4.578,4.579v24.419c0,1.169,0.342,2.099,1.031,2.784c0.685,0.688,1.563,1.031,2.631,1.031
				s2.238-0.011,3.51-0.038c1.272-0.025,2.596-0.063,3.969-0.114c1.373-0.049,2.76-0.1,4.157-0.152
				c1.4-0.049,3.205-0.152,5.418-0.305c2.213-0.152,4.973-0.332,8.281-0.536V1389.051z"/>
			<path style="fill:#61B2C2;" d="M1515.296,1389.815h-14.882l20.222-53.414h15.263l20.222,53.414h-14.879l-3.434-9.537h-19.077
				L1515.296,1389.815z M1522.164,1370.357h12.207l-6.104-17.933L1522.164,1370.357z"/>
			<path style="fill:#61B2C2;" d="M1588.93,1379.133h27.854v10.682h-41.589V1336.4h13.735V1379.133z"/>
		</g>
		<g>
			<path style="fill:#61B2C2;" d="M1216.541,1409.302h15.741c2.569,0,4.459,0.585,5.666,1.751c1.204,1.166,1.808,2.944,1.808,5.331
				c0,1.574-0.34,2.852-1.022,3.836c-0.683,0.984-1.522,1.672-2.517,2.066c2.123,0.577,3.567,1.993,4.328,4.25
				c0.261,0.813,0.394,1.759,0.394,2.833c0,2.572-0.604,4.462-1.811,5.666c-1.207,1.207-3.096,1.811-5.666,1.811h-16.921V1409.302z
				 M1232.674,1417.173c0-1.574-0.786-2.362-2.36-2.362h-6.688v5.508h6.688c1.574,0,2.36-0.786,2.36-2.36V1417.173z
				 M1233.854,1428.189c0-1.574-0.786-2.36-2.36-2.36h-7.868v5.508h7.868c1.574,0,2.36-0.788,2.36-2.363V1428.189z"/>
			<path style="fill:#61B2C2;" d="M1259.233,1436.846h-7.672l10.429-27.543h7.867l10.429,27.543h-7.675l-1.77-4.918h-9.836
				L1259.233,1436.846z M1262.776,1426.811h6.296l-3.148-9.246L1262.776,1426.811z"/>
			<path style="fill:#61B2C2;" d="M1312.553,1436.452c-5.851,0.525-10.703,0.788-14.559,0.788c-2.572,0-4.462-0.604-5.666-1.811
				c-1.207-1.207-1.811-3.094-1.811-5.666v-12.59c0-2.757,0.623-4.755,1.868-6.003c1.248-1.245,3.247-1.868,6.003-1.868h14.164
				v5.508h-12.593c-1.571,0-2.36,0.788-2.36,2.362v12.59c0,0.604,0.177,1.082,0.53,1.435c0.356,0.354,0.807,0.533,1.359,0.533
				c0.55,0,1.153-0.008,1.811-0.022c0.655-0.011,1.338-0.032,2.044-0.057c0.71-0.027,1.422-0.055,2.145-0.079
				c0.721-0.027,1.653-0.078,2.792-0.158c1.142-0.079,2.564-0.172,4.271-0.277V1436.452z"/>
			<path style="fill:#61B2C2;" d="M1332.62,1436.846h-7.085v-27.543h7.085v10.821h3.54l6.139-10.821h7.477l-7.713,13.575
				l7.673,13.969h-7.477l-6.098-11.215h-3.54V1436.846z"/>
			<path style="fill:#61B2C2;" d="M1384.792,1436.256c-6.139,0.655-11.777,0.984-16.918,0.984c-2.572,0-4.462-0.604-5.666-1.811
				c-1.207-1.207-1.811-3.094-1.811-5.666v-12.59c0-2.757,0.623-4.755,1.868-6.003c1.248-1.245,3.246-1.868,6.003-1.868h14.164
				v5.508h-12.593c-1.571,0-2.36,0.788-2.36,2.362v12.59c0,0.604,0.177,1.082,0.53,1.435c0.356,0.354,0.835,0.533,1.438,0.533
				c3.015,0,5.769-0.065,8.262-0.198v-5.704h-5.114v-4.723h12.196V1436.256z"/>
			<path style="fill:#61B2C2;" d="M1398.565,1409.302h16.527c2.755,0,4.755,0.623,6.001,1.868c1.245,1.248,1.87,3.246,1.87,6.003
				v3.54c0,2.178-0.361,3.869-1.082,5.076c-0.723,1.207-1.871,2.006-3.445,2.4l4.918,8.656h-7.672l-4.524-8.262h-5.508v8.262h-7.085
				V1409.302z M1415.878,1417.173c0-1.574-0.786-2.362-2.36-2.362h-7.868v8.262h7.868c1.574,0,2.36-0.786,2.36-2.36V1417.173z"/>
			<path style="fill:#61B2C2;" d="M1461.52,1429.369c0,2.754-0.622,4.755-1.867,6c-1.248,1.248-3.246,1.87-6.001,1.87h-9.836
				c-2.757,0-4.755-0.623-6.003-1.87c-1.245-1.245-1.868-3.247-1.868-6v-12.59c0-2.754,0.623-4.755,1.868-6
				c1.248-1.245,3.246-1.871,6.003-1.871h9.836c2.755,0,4.752,0.625,6.001,1.871c1.245,1.245,1.867,3.246,1.867,6V1429.369z
				 M1454.437,1416.779c0-1.574-0.786-2.362-2.359-2.362h-6.691c-1.572,0-2.36,0.788-2.36,2.362v12.59
				c0,1.574,0.788,2.362,2.36,2.362h6.691c1.574,0,2.359-0.788,2.359-2.362V1416.779z"/>
			<path style="fill:#61B2C2;" d="M1493,1409.302h7.082v20.067c0,2.754-0.622,4.755-1.868,6c-1.248,1.248-3.246,1.87-6,1.87h-9.051
				c-2.754,0-4.755-0.623-6-1.87c-1.248-1.245-1.871-3.247-1.871-6v-20.067h7.085v20.067c0,1.574,0.786,2.362,2.36,2.362h5.903
				c1.574,0,2.36-0.788,2.36-2.362V1409.302z"/>
			<path style="fill:#61B2C2;" d="M1538.645,1436.846h-7.477l-9.442-16.527v16.527h-7.085v-27.543h7.477l9.445,16.527v-16.527h7.082
				V1436.846z"/>
			<path style="fill:#61B2C2;" d="M1568.548,1409.302c2.963,0,5.212,0.767,6.748,2.303c1.533,1.533,2.303,3.782,2.303,6.748v9.442
				c0,2.966-0.77,5.214-2.303,6.748c-1.536,1.536-3.785,2.303-6.748,2.303H1553.2v-27.543H1568.548z M1570.513,1418.353
				c0-2.362-1.18-3.542-3.54-3.542h-6.688v16.527h6.688c2.36,0,3.54-1.18,3.54-3.542V1418.353z"/>
		</g>
	</g>
</g>
</svg>
